# xmcd
#
# Track frame offsets: 
#        150
#        15920
#        31972
#        45483
#        59941
#        78765
#        93199
#        106820
#        119195
#        130926
#        149743
#
# Disc length: 2164 seconds
#
# Revision: 6
# Processed by: cddbd v1.5.2PL0 Copyright (c) Steve Scherf et al.
# Submitted via: ExactAudioCopy v1.3
#
DISCID=9308720b
DTITLE=Holly Dunn - Milestones - Greatest Hits
DYEAR=1991
DGENRE=Country
TTITLE0=Daddy's Hands
TTITLE1=Only When I Love
TTITLE2=(It's Always Gonna Be) Someday
TTITLE3=Love Someone Like Me
TTITLE4=A Face In The Crowd
TTITLE5=Strangers Again
TTITLE6=Maybe I Mean Yes
TTITLE7=There Goes My Heart Again
TTITLE8=Are You Ever Gonna Love Me
TTITLE9=No One Takes The Train Anymore
TTITLE10=You Really Had Me Going
EXTD=YEAR: 1991
EXTT0=
EXTT1=
EXTT2=
EXTT3=
EXTT4=
EXTT5=
EXTT6=
EXTT7=
EXTT8=
EXTT9=
EXTT10=
PLAYORDER=
